
<svg width="22" height="22" viewBox="0 0 22 22" fill="none" xmlns="http://www.w3.org/2000/svg">
<path fill-rule="evenodd" clip-rule="evenodd" d="M11 4C7.13401 4 4 7.13401 4 11C4 14.866 7.13401 18 11 18C14.866 18 18 14.866 18 11C18 7.13401 14.866 4 11 4ZM19.9451 10C19.4839 5.82838 16.1716 2.51608 12 2.05493V1C12 0.447715 11.5523 0 11 0C10.4477 0 10 0.447715 10 1V2.05493C5.82838 2.51608 2.51608 5.82838 2.05493 10H1C0.447715 10 0 10.4477 0 11C0 11.5523 0.447715 12 1 12H2.05493C2.51608 16.1716 5.82838 19.4839 10 19.9451V21C10 21.5523 10.4477 22 11 22C11.5523 22 12 21.5523 12 21V19.9451C16.1716 19.4839 19.4839 16.1716 19.9451 12H21C21.5523 12 22 11.5523 22 11C22 10.4477 21.5523 10 21 10H19.9451ZM11 15C13.2091 15 15 13.2091 15 11C15 8.79086 13.2091 7 11 7C8.79086 7 7 8.79086 7 11C7 13.2091 8.79086 15 11 15Z" fill="#E7E7EB"/>
</svg>
